<?xml version="1.0" encoding="UTF-8"?>
<svg id="Layer_1" xmlns="http://www.w3.org/2000/svg" version="1.1" viewBox="0 0 1024 1024">
  <!-- Generator: Adobe Illustrator 30.4.0, SVG Export Plug-In . SVG Version: 2.1.4 Build 226)  -->
  <defs>
    <style>
      .st0 {
        fill: #fc5102;
      }

      .st1 {
        fill: #fff;
      }
    </style>
  </defs>
  <rect class="st0" x="18.75" y="18.75" width="988" height="988" rx="165" ry="165"/>
  <g>
    <path class="st1" d="M151.02,224.44c0-34,26-60,60-60h88c22,0,40,18,40,40s-18,40-40,40h-92v536.62h92c22,0,40,18,40,40s-18,40-40,40h-88c-34,0-60-26-60-60V224.44h0Z"/>
    <path class="st1" d="M874.48,224.44c0-34-26-60-60-60h-88c-22,0-40,18-40,40s18,40,40,40h92v536.62h-92c-22,0-40,18-40,40s18,40,40,40h88c34,0,60-26,60-60V224.44Z"/>
  </g>
  <g>
    <path class="st1" d="M510.21,517.86l-208.19.02c-4.6,0-9.63-3.09-9.63-7.98l-.06-167.64c0-6.07,3.46-9.86,9.7-9.85l208.68.02c6.35,0,9.47,4.03,9.47,9.85v168.45c-1.18,4.48-4.34,7.14-9.97,7.14ZM372.31,387.65c0-12.91-10.59-23.38-23.65-23.38s-23.65,10.47-23.65,23.38,10.59,23.38,23.65,23.38,23.65-10.47,23.65-23.38ZM314.3,487.06c-2.12,2.33-3.42,5.12-2.37,7.54.69,1.58,3.42,4.13,5.85,4.13h175.39c6.34,0,9.77-5.1,9.37-10.81l-.66-9.32-52.82-57.9c-3.61-3.96-9.94-7.32-14.41-2.3l-48.43,54.34c-3.69,4.14-10.08,4.92-14.03.61l-14.89-16.26c-2.93-3.2-9.72-6.59-13.69-2.24l-29.31,32.22Z"/>
    <path class="st1" d="M727.71,699.06h-111.23c-3.79-.01-7.93-3.62-7.94-7.54l-.23-137.96c0-4.94,1.94-11.13,8.38-11.13l108.98-.1c4.05,0,9.7,2.66,9.7,7.54l.08,139.67c0,4.91-2.51,8.09-7.74,9.51Z"/>
    <path class="st1" d="M726.97,517.88l-174.95-.03c-4.36,0-8.91-3.41-8.91-7.75v-68.49c.01-5.93,5.76-8,10.92-8l171.58.11c5.34,0,9.82,3.41,9.82,8.86v65.57c0,5.02-2.55,8.87-8.46,9.73Z"/>
    <path class="st1" d="M725.6,410.66h-173.58c-5.38,0-8.98-3.55-8.98-8.68l.07-61.77c0-4.45,4.42-7.77,8.88-7.77l173.61-.04c6.24,0,9.81,3.84,9.81,9.76l.04,58.81c0,6.02-3.66,9.69-9.85,9.69Z"/>
  </g>
</svg>