<svg xmlns="http://www.w3.org/2000/svg" viewBox="0 0 480 100" width="480" height="100">
  <rect x="0" y="8" width="84" height="84" rx="14" fill="#fc5102"/>
  <path d="M10 24 C10 21.8 11.8 20 14 20 L22 20 C24.2 20 26 21.8 26 24 C26 26.2 24.2 28 22 28 L18 28 L18 72 L22 72 C24.2 72 26 73.8 26 76 C26 78.2 24.2 80 22 80 L14 80 C11.8 80 10 78.2 10 76 Z" fill="white"/>
  <path d="M74 24 C74 21.8 72.2 20 70 20 L62 20 C59.8 20 58 21.8 58 24 C58 26.2 59.8 28 62 28 L66 28 L66 72 L62 72 C59.8 72 58 73.8 58 76 C58 78.2 59.8 80 62 80 L70 80 C72.2 80 74 78.2 74 76 Z" fill="white"/>
  <rect x="26" y="44" width="32" height="12" rx="3" fill="white"/>
  <text x="100" y="62" font-family="system-ui, -apple-system, sans-serif" font-size="36" font-weight="700" fill="#1a0a00" letter-spacing="-0.5">artwork<tspan fill="#fc5102">PDF</tspan></text>
</svg>